<?xml version="1.0" encoding="iso-8859-1"?>
<!-- Generator: Adobe Illustrator 19.0.0, SVG Export Plug-In . SVG Version: 6.00 Build 0)  -->
<svg version="1.1" id="Layer_1" xmlns="http://www.w3.org/2000/svg" xmlns:xlink="http://www.w3.org/1999/xlink" x="0px" y="0px"
	 viewBox="220 -126 758 449" style="enable-background:new 220 -126 758 449;" xml:space="preserve">
<polygon id="XMLID_842_" style="fill:#66ADB4;" points="220.703,-127.425 220.703,165.331 220.703,177.151 220.703,315.824 
	977.793,315.824 977.793,177.151 977.793,165.331 977.793,-127.425 "/>
<g id="XMLID_4_">
	<g id="XMLID_504_">
		<path id="XMLID_509_" style="fill:#636162;" d="M687.934,234.438c-0.657,1.105-1.26,2.444-2.017,3.818
			c-0.65,1.444-1.421,2.946-2.11,4.612c-0.75,1.623-1.378,3.412-2.105,5.218c-0.744,1.8-1.243,3.77-1.962,5.676
			c-0.519,1.984-1.21,3.94-1.698,5.966c-0.297,1.3-0.655,2.583-0.974,3.869h35.883c-5.243-20.257-21.918-66.731-66.026-76.181
			l-36.283,24.325l-0.919-0.635v0.734l2.11-0.172l14.81,2.799l-3.76,7.323l-8.709,17.297l2.23,24.51h55.158
			c0.317-1.763,0.808-3.517,1.188-5.291c0.554-2.14,1.302-4.228,1.979-6.293c0.83-2.019,1.634-4.01,2.567-5.861
			c0.898-1.873,1.883-3.622,2.919-5.219c0.947-1.646,2.094-3.054,3.07-4.381c2.071-2.587,4.047-4.517,5.526-5.741
			c1.497-1.22,2.444-1.766,2.444-1.766s-0.641,0.896-1.628,2.486C689.14,232.337,688.562,233.308,687.934,234.438z"/>
		<path id="XMLID_505_" style="fill:#565656;" d="M576.55,188.178c0,0-58.659,8.216-70.055,75.419h36.366
			c-0.014-0.077-0.034-0.156-0.045-0.236c-0.375-2.023-0.995-4.014-1.46-6.042c-0.487-2.025-1.178-3.983-1.698-5.967
			c-0.718-1.905-1.216-3.877-1.963-5.673c-0.725-1.807-1.352-3.597-2.101-5.222c-0.693-1.663-1.462-3.167-2.11-4.611
			c-0.757-1.372-1.362-2.712-2.019-3.819c-0.628-1.128-1.205-2.097-1.69-2.906c-0.987-1.592-1.629-2.483-1.629-2.483
			s0.947,0.546,2.446,1.762c1.478,1.224,3.453,3.154,5.524,5.744c0.977,1.324,2.124,2.734,3.068,4.379
			c1.037,1.599,2.021,3.343,2.919,5.219c0.935,1.852,1.74,3.842,2.568,5.861c0.679,2.065,1.428,4.153,1.98,6.294
			c0.463,2.156,1.105,4.283,1.376,6.437c0.064,0.421,0.126,0.842,0.189,1.261h55.715l2.342-24.51l-8.706-17.297l1.314-4.484
			l8.479-5.274l2.364-0.193v-0.734L576.55,188.178z"/>
	</g>
	<polygon id="XMLID_502_" style="fill:none;" points="607.358,212.032 598.879,217.306 597.566,221.79 599.609,218.253 	"/>
	<polygon id="XMLID_501_" style="fill:none;" points="622.882,221.79 626.641,214.466 611.832,211.667 619.557,219.773 	"/>
	<path id="XMLID_496_" style="fill:#505050;" d="M546.65,255.899c-0.552-2.141-1.301-4.229-1.98-6.294
		c-0.827-2.019-1.633-4.009-2.568-5.861c-0.898-1.876-1.882-3.62-2.919-5.219c-0.945-1.645-2.091-3.055-3.068-4.379
		c-2.071-2.59-4.046-4.52-5.524-5.744c-1.499-1.216-2.446-1.762-2.446-1.762s0.643,0.891,1.629,2.483
		c0.485,0.809,1.063,1.778,1.69,2.906c0.657,1.106,1.262,2.447,2.019,3.819c0.648,1.444,1.418,2.948,2.11,4.611
		c0.749,1.624,1.376,3.415,2.101,5.222c0.747,1.796,1.245,3.768,1.963,5.673c0.52,1.984,1.211,3.942,1.698,5.967
		c0.465,2.028,1.085,4.018,1.46,6.042c0.011,0.08,0.031,0.158,0.045,0.236h5.354c-0.063-0.419-0.125-0.84-0.189-1.261
		C547.754,260.182,547.112,258.054,546.65,255.899z"/>
	<path id="XMLID_492_" style="fill:#505050;" d="M679.74,253.761c0.719-1.906,1.218-3.876,1.962-5.676
		c0.727-1.806,1.356-3.595,2.105-5.218c0.689-1.666,1.46-3.168,2.11-4.612c0.757-1.374,1.36-2.713,2.017-3.818
		c0.629-1.129,1.206-2.1,1.691-2.907c0.987-1.589,1.628-2.486,1.628-2.486s-0.947,0.546-2.444,1.766
		c-1.479,1.224-3.455,3.154-5.526,5.741c-0.975,1.327-2.122,2.735-3.07,4.381c-1.036,1.598-2.021,3.346-2.919,5.219
		c-0.933,1.85-1.738,3.842-2.567,5.861c-0.678,2.065-1.426,4.154-1.979,6.293c-0.38,1.773-0.871,3.527-1.188,5.291h5.507
		c0.319-1.286,0.677-2.569,0.974-3.869C678.53,257.701,679.221,255.745,679.74,253.761z"/>
	<rect id="XMLID_486_" x="584.11" y="150.929" style="fill:#FCC082;" width="51.4" height="60.812"/>
	<polygon id="XMLID_482_" style="fill:#D29E6E;" points="584.034,182.891 637.022,153.21 584.02,141.05 	"/>
	<g id="XMLID_468_">
		<polyline id="XMLID_480_" style="fill:#87C2BF;" points="622.882,221.79 626.641,214.466 611.832,211.667 		"/>
		<polygon id="XMLID_479_" style="fill:#87C2BF;" points="607.358,212.032 598.879,217.306 597.566,221.79 599.609,218.253 		"/>
	</g>
	<g id="XMLID_441_">
		<path id="XMLID_448_" style="fill:#EBB47A;" d="M544.621,76.234c0,45.681,28.54,82.804,64.039,83.824V8.89
			C573.777,10.025,544.621,31.191,544.621,76.234z"/>
		<path id="XMLID_444_" style="fill:#FCC082;" d="M611.641,8.835c-0.996,0-1.99,0.023-2.98,0.054v151.168
			c0.498,0.014,0.995,0.048,1.493,0.048c36.197,0,65.533-37.552,65.533-83.872S647.837,8.835,611.641,8.835z"/>
	</g>
	<path id="XMLID_419_" style="fill:#FCC082;" d="M669.079,81.496c-1.409,9.669,1.301,18.075,6.046,18.773
		c4.747,0.7,9.737-6.571,11.145-16.242c1.408-9.666-1.303-18.073-6.047-18.771C675.479,64.556,670.487,71.827,669.079,81.496z"/>
	<g id="XMLID_414_">
		<path id="XMLID_417_" style="fill:#713E19;" d="M577.157,0.849c-3.373,1.228-8.101,1.653-11.858,1.781
			c-3.442,0.117-6.07-0.017-6.07-0.017c0.141,0.571,0.697,1.897,1.233,3.115c0.569,1.296,1.118,2.468,1.118,2.468
			c-0.658,0.066-1.862-0.263-3.31-0.797c-5.021-1.841-13.15-6.254-13.15-6.254c-0.879,6.762,0.737,12.79,2.576,17.125
			c1.834,4.334,3.892,6.977,3.892,6.977c-1.47,0.294-5.584-1.469-5.584-1.469c1.175,5.585,2.351,8.231,2.351,8.231
			c-8.839,6.454-10.891,25.085-11.055,39.659l15.168,17.697l5.232-12.701c0.112,0.014,0.218,0.019,0.331,0.033
			c3.705-13.372,6.781-33.52,6.781-33.52c16.101,10.336,31.678,13.101,44.913,12.485V-4.144
			C593.331-2.922,579.465,0.009,577.157,0.849z"/>
		<path id="XMLID_416_" style="fill:#7C4721;" d="M680.053,63.886c-1.566-20.717-10.016-35.701-10.016-35.701
			c5.653-25.203-17.907-32.225-42.75-32.83c-5.908-0.144-11.888,0.076-17.566,0.5v59.806c19.272-0.898,33.578-8.967,37.306-11.276
			c1.198-1.308,1.824-2.093,1.824-2.093c2.243,25.404,19.425,42.587,19.425,42.587c-1.441-10.789,10.937-19.249,11.86-19.864
			c0.035-0.023,0.087-0.058,0.087-0.058C680.173,64.589,680.11,64.248,680.053,63.886z"/>
	</g>
	<g id="XMLID_314_">
		<g id="XMLID_315_">
			<g id="XMLID_438_">
				<g id="XMLID_440_">
					<g id="XMLID_445_">
						<g id="XMLID_485_">
							<path id="XMLID_489_" style="fill:#0C333F;" d="M545.13,65.409c0,0,10.806-54.442,62.755-54.442
								c51.949,0,65.666,47.378,65.666,47.378l-7.897,0.832c0,0-12.885-35.742-56.315-35.742c-43.428,0-58.806,41.974-58.806,41.974
								L545.13,65.409L545.13,65.409z"/>
						</g>
						<g id="XMLID_467_">
							<path id="XMLID_483_" style="fill:#2D5972;" d="M667.73,62.501c0,0,4.989,42.39,3.739,45.299c0,0,16.625,2.493,17.041-10.805
								V74.139c0,0-0.67-8.023-10.39-11.638h-8.73"/>
						</g>
						<g id="XMLID_447_">
							<path id="XMLID_450_" style="fill:#0C333F;" d="M621.832,132.095c0,0,36.756-2.879,51.719-20.4c0,0,3.722-2.64,6.365,2.639
								c2.64,5.282-36.723,23.04-58.084,24.001c0,0-0.958,3.842-11.518,4.081c-10.561,0.241-12.96-3.358-12.96-3.358
								s-5.04-5.763,0.959-9.841c5.999-4.08,11.027-2.484,11.027-2.484S619.674,127.295,621.832,132.095z"/>
						</g>
					</g>
				</g>
			</g>
		</g>
	</g>
	<path id="XMLID_311_" style="fill:#EBB47A;" d="M549.064,80.708c0.92,9.542-1.867,17.624-6.222,18.046
		c-4.353,0.426-8.629-6.966-9.548-16.51c-0.919-9.546,1.867-17.628,6.221-18.051C543.87,63.771,548.147,71.164,549.064,80.708z"/>
	<g id="XMLID_301_">
		<polygon id="XMLID_307_" style="fill:#DA8A5D;" points="607.358,212.032 599.609,218.253 597.566,221.79 606.272,239.087 
			603.93,263.596 609.722,263.596 609.722,211.839 		"/>
		<polygon id="XMLID_302_" style="fill:#F39D67;" points="614.173,239.087 622.882,221.79 621.979,216.903 611.832,211.667 
			609.722,211.839 609.722,263.596 616.403,263.596 		"/>
	</g>
	<polygon id="XMLID_202_" style="fill:#505050;" points="579.578,180.572 610.641,211.741 591.071,227.475 573.527,187.415 	"/>
	<polygon id="XMLID_72_" style="fill:#505050;" points="640.871,180.572 610.641,211.741 630.857,228.097 646.924,187.415 	"/>
</g>
<path id="XMLID_841_" style="fill:#FDD6B6;" d="M426.313,171.94c-6.392,1.681-12.997,1.703-19.312-1.004
	c8.19-2.262,11.836-4.702,19.008-9.412c0.818-0.538,1.631-1.082,2.438-1.639c1.146-1.118,2.576-0.917,3.895-0.415
	c0.447,0.17,0.881,0.374,1.287,0.574c-6.424,5.121-9.549,8.056-17.213,10.578c9.708-1.182,13.709-6.481,21.738-11.917
	c2.409-1.812,4.891,0.63,6.058,2.835c-3.697,3.02-7.842,5.864-12.238,8.122C428.872,171.256,429.598,171.079,426.313,171.94z"/>
<g id="XMLID_822_">
	<rect id="XMLID_840_" x="440.055" y="113.868" style="fill:#FFFFFF;" width="24.677" height="21.167"/>
	<rect id="XMLID_839_" x="392.95" y="113.868" style="fill:#FFFFFF;" width="24.252" height="21.167"/>
	<path id="XMLID_823_" style="fill:#22859A;" d="M472.763,132.75v-16.809c0-1.99-0.538-3.6-1.204-3.6h-83.257
		c-0.668,0-1.204,1.61-1.204,3.6v16.809c0,1.981,0.536,3.597,1.204,3.597h83.257C472.225,136.348,472.763,134.732,472.763,132.75z
		 M397.271,133.14l-0.497-0.263V114.9l0.497-0.26h2.31l0.488,0.26v17.977l-0.488,0.263H397.271z M407.393,119.202
		c2.954,0,5.349,2.054,5.349,4.589c0,2.534-2.395,4.588-5.349,4.588c-2.957,0-5.35-2.054-5.35-4.588
		C402.043,121.255,404.437,119.202,407.393,119.202z M448.086,133.14l-0.499-0.263V114.9l0.499-0.26h2.309l0.492,0.26v17.977
		l-0.492,0.263H448.086z M453.053,114.833h2.867v18.112h-2.867V114.833z M458.252,133.14l-0.499-0.263V114.9l0.499-0.26h2.301
		l0.498,0.26v17.977l-0.498,0.263H458.252z"/>
</g>
<g id="XMLID_803_">
	<rect id="XMLID_821_" x="442.136" y="138.582" style="fill:#FFFFFF;" width="22.596" height="20.146"/>
	<rect id="XMLID_820_" x="392.95" y="138.582" style="fill:#FFFFFF;" width="25.664" height="21.16"/>
	<path id="XMLID_804_" style="fill:#2D5972;" d="M472.763,157.612v-16.808c0-1.989-0.538-3.6-1.204-3.6h-83.257
		c-0.668,0-1.204,1.612-1.204,3.6v16.808c0,1.982,0.536,3.599,1.204,3.599h83.257C472.225,161.211,472.763,159.594,472.763,157.612z
		 M397.271,158.001l-0.497-0.262v-17.977l0.497-0.26h2.31l0.488,0.26v17.977l-0.488,0.262H397.271z M407.393,144.063
		c2.954,0,5.349,2.055,5.349,4.59c0,2.534-2.395,4.588-5.349,4.588c-2.957,0-5.35-2.055-5.35-4.588
		C402.043,146.118,404.437,144.063,407.393,144.063z M448.086,158.001l-0.499-0.262v-17.977l0.499-0.26h2.309l0.492,0.26v17.977
		l-0.492,0.262H448.086z M453.053,139.696h2.867v18.112h-2.867V139.696z M458.252,158.001l-0.499-0.262v-17.977l0.499-0.26h2.301
		l0.498,0.26v17.977l-0.498,0.262H458.252z"/>
</g>
<rect id="XMLID_726_" x="371.909" y="259.92" style="fill:#FFFFFF;" width="88.654" height="1.24"/>
<rect id="XMLID_725_" x="371.909" y="258.448" style="fill:#FFFFFF;" width="88.654" height="1.24"/>
<rect id="XMLID_724_" x="371.909" y="256.975" style="fill:#FFFFFF;" width="88.654" height="1.24"/>
<rect id="XMLID_723_" x="371.909" y="255.502" style="fill:#FFFFFF;" width="88.654" height="1.24"/>
<rect id="XMLID_722_" x="371.909" y="254.03" style="fill:#FFFFFF;" width="88.654" height="1.24"/>
<rect id="XMLID_721_" x="371.909" y="252.557" style="fill:#FFFFFF;" width="88.654" height="1.24"/>
<rect id="XMLID_720_" x="371.909" y="251.084" style="fill:#FFFFFF;" width="88.654" height="1.24"/>
<rect id="XMLID_719_" x="371.909" y="249.612" style="fill:#FFFFFF;" width="88.654" height="1.24"/>
<rect id="XMLID_718_" x="371.909" y="248.139" style="fill:#FFFFFF;" width="88.654" height="1.24"/>
<rect id="XMLID_717_" x="371.909" y="246.667" style="fill:#FFFFFF;" width="88.654" height="1.24"/>
<rect id="XMLID_716_" x="371.909" y="245.194" style="fill:#FFFFFF;" width="88.654" height="1.24"/>
<rect id="XMLID_715_" x="371.909" y="243.721" style="fill:#FFFFFF;" width="88.654" height="1.24"/>
<g id="XMLID_689_">
	<path id="XMLID_712_" style="fill:#C0BFBF;" d="M769.989,173.032c0.142,1.319-0.811,2.506-2.132,2.648l-1.743,0.188
		c-1.318,0.142-2.505-0.813-2.647-2.132l-0.189-1.745c-0.142-1.32,0.814-2.504,2.132-2.646l1.743-0.188
		c1.321-0.142,2.505,0.81,2.647,2.13L769.989,173.032z"/>
	<g id="XMLID_705_">
		<polygon id="XMLID_709_" style="fill:#323230;" points="774.834,248.281 775.529,246.052 773.656,246.254 		"/>
		<polygon id="XMLID_706_" style="fill:#ECD097;" points="770.568,240.931 773.656,246.254 775.529,246.052 777.354,240.2 		"/>
	</g>
	<g id="XMLID_702_">
		<path id="XMLID_704_" style="fill:#8E9E3C;" d="M766.972,175.436l6.999,64.919c0.156-0.81,0.67-1.627,1.418-1.708
			c0.887-0.095,1.672,0.604,1.886,1.582l0.072-0.008l-7.023-65.147L766.972,175.436z"/>
		<path id="XMLID_703_" style="fill:#A3B844;" d="M763.559,175.804l7.023,65.147l0.02-0.002c-0.037-1.036,0.598-1.931,1.506-2.029
			c0.8-0.086,1.551,0.685,1.845,1.51c0.003-0.025,0.011-0.053,0.017-0.076l-6.999-64.919L763.559,175.804z"/>
	</g>
	<path id="XMLID_699_" style="fill:#ECD097;" d="M775.45,238.618c-0.782,0.084-1.357,0.758-1.492,1.6
		c-0.299-0.834-1.019-1.408-1.827-1.321c-0.916,0.099-1.56,1.003-1.522,2.051l3.322-0.358l0.128-0.014l3.297-0.356
		C777.139,239.232,776.344,238.522,775.45,238.618z"/>
	
		<rect id="XMLID_696_" x="763.449" y="173.693" transform="matrix(-0.9942 0.1072 -0.1072 -0.9942 1547.933 265.9347)" style="fill:#268396;" width="6.739" height="1.761"/>
	<path id="XMLID_693_" style="fill:#25737E;" d="M770.369,174.187c0.015,0.137-0.086,0.266-0.226,0.28l-6.522,0.704
		c-0.14,0.015-0.266-0.089-0.281-0.226l0,0c-0.015-0.141,0.086-0.266,0.226-0.281l6.522-0.703
		C770.229,173.946,770.354,174.046,770.369,174.187L770.369,174.187z"/>
	<path id="XMLID_690_" style="fill:#25737E;" d="M770.494,175.038c0.015,0.14-0.086,0.266-0.226,0.281l-6.523,0.703
		c-0.139,0.015-0.265-0.086-0.28-0.226l0,0c-0.015-0.138,0.087-0.265,0.226-0.28l6.523-0.704
		C770.353,174.797,770.479,174.9,770.494,175.038L770.494,175.038z"/>
</g>
<g id="XMLID_659_">
	<path id="XMLID_686_" style="fill:#C0BFBF;" d="M800.501,181.221c-0.109,1.322-1.269,2.308-2.593,2.199l-1.747-0.144
		c-1.321-0.109-2.306-1.271-2.197-2.593l0.144-1.749c0.109-1.323,1.271-2.305,2.592-2.196l1.748,0.144
		c1.324,0.109,2.307,1.268,2.199,2.591L800.501,181.221z"/>
	<g id="XMLID_679_">
		<polygon id="XMLID_683_" style="fill:#323230;" points="791.078,256.034 792.18,253.976 790.302,253.822 		"/>
		<polygon id="XMLID_680_" style="fill:#ECD097;" points="788.273,248.012 790.302,253.822 792.18,253.976 795.075,248.573 		"/>
	</g>
	<g id="XMLID_672_">
		<path id="XMLID_676_" style="fill:#BF5627;" d="M797.085,183.013l-5.362,65.074c0.305-0.766,0.964-1.472,1.714-1.41
			c0.889,0.073,1.528,0.908,1.554,1.909l0.072,0.006l5.381-65.303L797.085,183.013z"/>
		<path id="XMLID_673_" style="fill:#F16A25;" d="M793.665,182.731l-5.381,65.303l0.019,0.002c0.16-1.025,0.951-1.783,1.862-1.708
			c0.802,0.066,1.394,0.965,1.527,1.831c0.009-0.025,0.021-0.05,0.032-0.071l5.362-65.074L793.665,182.731z"/>
	</g>
	<path id="XMLID_669_" style="fill:#ECD097;" d="M793.503,246.66c-0.784-0.065-1.475,0.488-1.766,1.289
		c-0.136-0.875-0.735-1.574-1.546-1.641c-0.918-0.076-1.722,0.691-1.882,1.728l3.33,0.274l0.129,0.01l3.305,0.272
		C795.047,247.582,794.401,246.734,793.503,246.66z"/>
	
		<rect id="XMLID_666_" x="793.732" y="181.261" transform="matrix(-0.9966 -0.0821 0.0821 -0.9966 1576.5582 429.1125)" style="fill:#268396;" width="6.739" height="1.761"/>
	<path id="XMLID_663_" style="fill:#25737E;" d="M800.658,182.427c-0.012,0.137-0.135,0.245-0.275,0.233l-6.538-0.538
		c-0.141-0.012-0.245-0.138-0.233-0.275l0,0c0.011-0.142,0.134-0.245,0.275-0.233l6.538,0.539
		C800.565,182.163,800.669,182.285,800.658,182.427L800.658,182.427z"/>
	<path id="XMLID_660_" style="fill:#25737E;" d="M800.618,183.286c-0.011,0.141-0.134,0.245-0.274,0.234l-6.539-0.539
		c-0.138-0.011-0.244-0.135-0.232-0.275l0,0c0.011-0.139,0.135-0.244,0.274-0.233l6.539,0.538
		C800.526,183.023,800.63,183.147,800.618,183.286L800.618,183.286z"/>
</g>
<g id="XMLID_629_">
	<path id="XMLID_656_" style="fill:#C0BFBF;" d="M780.986,176.657c0,1.327-1.075,2.404-2.404,2.405h-1.753
		c-1.326,0-2.403-1.077-2.403-2.403v-1.755c0-1.327,1.077-2.402,2.402-2.402l1.754-0.001c1.329,0,2.404,1.074,2.404,2.401V176.657z"
		/>
	<g id="XMLID_649_">
		<polygon id="XMLID_653_" style="fill:#323230;" points="777.749,251.991 778.679,249.85 776.794,249.85 		"/>
		<polygon id="XMLID_650_" style="fill:#ECD097;" points="774.294,244.228 776.794,249.85 778.679,249.85 781.119,244.227 		"/>
	</g>
	<g id="XMLID_642_">
		<path id="XMLID_646_" style="fill:#83A5B5;" d="M777.73,178.723l0.009,65.295c0.242-0.789,0.84-1.546,1.592-1.546
			c0.893,0,1.598,0.779,1.706,1.775h0.072l-0.008-65.524H777.73z"/>
		<path id="XMLID_643_" style="fill:#B8D9E5;" d="M774.297,178.724l0.009,65.524h0.019c0.075-1.034,0.801-1.856,1.716-1.856
			c0.804-0.001,1.469,0.847,1.672,1.699c0.006-0.025,0.017-0.052,0.025-0.074l-0.009-65.295L774.297,178.724z"/>
	</g>
	<path id="XMLID_639_" style="fill:#ECD097;" d="M779.395,242.45c-0.787,0-1.43,0.608-1.655,1.43
		c-0.207-0.861-0.862-1.508-1.675-1.508c-0.922,0-1.658,0.83-1.733,1.876h3.342l0.129-0.001l3.316-0.001
		C781.009,243.241,780.296,242.449,779.395,242.45z"/>
	<rect id="XMLID_636_" x="774.329" y="176.963" style="fill:#268396;" width="6.739" height="1.76"/>
	<path id="XMLID_633_" style="fill:#25737E;" d="M781.241,177.845c0,0.137-0.114,0.255-0.255,0.255l-6.56,0.001
		c-0.141,0-0.255-0.117-0.255-0.254l0,0c0-0.142,0.114-0.255,0.255-0.255l6.56-0.001
		C781.127,177.591,781.241,177.703,781.241,177.845L781.241,177.845z"/>
	<path id="XMLID_630_" style="fill:#25737E;" d="M781.273,178.705c0,0.141-0.114,0.255-0.254,0.255l-6.561,0.001
		c-0.139,0-0.254-0.114-0.254-0.255l0,0c0-0.139,0.115-0.255,0.254-0.255l6.561-0.001
		C781.159,178.45,781.274,178.566,781.273,178.705L781.273,178.705z"/>
</g>
<g id="XMLID_622_">
	<polygon id="XMLID_628_" style="fill:#2D5972;" points="796.839,260.156 801.88,198.886 780.302,198.886 780.302,260.156 	"/>
	<polygon id="XMLID_627_" style="fill:#3B697E;" points="763.765,260.156 780.302,260.156 780.302,198.886 758.725,198.886 	"/>
	<path id="XMLID_626_" style="fill:#777777;" d="M758.364,196.942c-0.576,0-1.042,0.467-1.042,1.042
		c0,0.575,0.466,1.042,1.042,1.042h21.939v-2.084L758.364,196.942L758.364,196.942z"/>
	<path id="XMLID_625_" style="fill:#5F605F;" d="M802.241,196.942h-21.939v2.084h21.939c0.575,0,1.042-0.467,1.042-1.042
		C803.283,197.409,802.816,196.942,802.241,196.942z"/>
	<path id="XMLID_624_" style="fill:#5F605F;" d="M796.833,262.263c0.576,0,1.043-0.467,1.043-1.042c0-0.575-0.467-1.043-1.043-1.043
		h-16.53v2.085H796.833z"/>
	<path id="XMLID_623_" style="fill:#777777;" d="M762.729,261.221c0,0.575,0.466,1.042,1.042,1.042h16.531v-2.085h-16.531
		C763.196,260.178,762.729,260.646,762.729,261.221z"/>
</g>
<rect id="XMLID_621_" x="220.485" y="285.958" style="fill:#563018;" width="762.281" height="11.224"/>
<g id="XMLID_591_">
	<path id="XMLID_618_" style="fill:#ECD097;" d="M837.925,262.024c-1.307,0-2.367-0.781-2.367-1.745v-1.273
		c0-0.963,1.06-1.745,2.366-1.745l1.727-0.001c1.307,0,2.365,0.782,2.365,1.745v1.273c0,0.964-1.057,1.745-2.364,1.746H837.925z"/>
	<g id="XMLID_611_">
		<polygon id="XMLID_615_" style="fill:#323230;" points="788.964,259.675 791.072,260.35 791.072,258.981 		"/>
		<polygon id="XMLID_612_" style="fill:#ECD097;" points="796.606,257.165 791.072,258.981 791.072,260.35 796.607,262.122 		"/>
	</g>
	<g id="XMLID_604_">
		<path id="XMLID_608_" style="fill:#83A5B5;" d="M835.89,259.659l-39.078,0.008c0.776,0.175,1.522,0.61,1.522,1.156
			c0,0.648-0.767,1.161-1.747,1.24v0.052l39.303-0.008L835.89,259.659z"/>
		<path id="XMLID_605_" style="fill:#B8D9E5;" d="M835.89,257.166l-39.304,0.008v0.014c1.018,0.054,1.827,0.582,1.827,1.246
			c0.001,0.584-0.834,1.067-1.673,1.214c0.025,0.005,0.051,0.012,0.073,0.019l39.078-0.008v-2.493H835.89z"/>
	</g>
	<path id="XMLID_601_" style="fill:#ECD097;" d="M798.355,260.87c0-0.571-0.598-1.038-1.408-1.201
		c0.848-0.151,1.485-0.626,1.485-1.217c0-0.669-0.817-1.204-1.847-1.259v2.427v0.093l0.001,2.408
		C797.577,262.042,798.356,261.524,798.355,260.87z"/>
	<rect id="XMLID_598_" x="835.89" y="257.189" style="fill:#268396;" width="1.733" height="4.894"/>
	<path id="XMLID_595_" style="fill:#25737E;" d="M836.754,262.209c-0.135,0-0.251-0.083-0.25-0.185l-0.002-4.764
		c0-0.103,0.115-0.185,0.251-0.185l0,0c0.14,0,0.251,0.083,0.251,0.185l0.001,4.763
		C837.005,262.126,836.894,262.209,836.754,262.209L836.754,262.209z"/>
	<path id="XMLID_592_" style="fill:#25737E;" d="M835.908,262.232c-0.139,0-0.251-0.083-0.251-0.185l-0.001-4.764
		c0-0.101,0.112-0.184,0.251-0.184l0,0c0.137,0,0.25,0.083,0.25,0.184l0.001,4.764C836.159,262.149,836.045,262.232,835.908,262.232
		L835.908,262.232z"/>
</g>
<g id="XMLID_589_">
	<rect id="XMLID_590_" x="220.651" y="262.576" style="fill:#723F1A;" width="761.909" height="26.534"/>
</g>
<g id="XMLID_587_">
	<polygon id="XMLID_588_" style="fill:#723F1A;" points="982.766,323.033 982.766,297.182 220.485,297.182 220.485,323.062 
		220.651,323.033 	"/>
</g>
<g id="XMLID_526_">
	<g id="XMLID_580_">
		<g id="XMLID_249_">
			<path id="XMLID_251_" style="fill:#0C3854;" d="M474.591,54.497c-0.371,0.301-0.737,0.607-1.112,0.901
				c-0.963,0.753-1.93,1.5-2.896,2.249c-0.051,0.04-0.108,0.073-0.196,0.131c-2.275-7.427-4.542-14.828-6.818-22.256
				c0.132,0.011,0.226,0.016,0.319,0.028c1.587,0.185,3.172,0.385,4.761,0.55c0.417,0.043,0.727,0.23,1.004,0.504
				c0.587,0.576,1.014,1.262,1.291,2.03c0.442,1.223,0.875,2.45,1.271,3.688c0.977,3.056,1.933,6.119,2.889,9.181
				c0.196,0.628,0.203,1.272,0.053,1.913c-0.04,0.174-0.115,0.341-0.173,0.511C474.853,54.115,474.722,54.306,474.591,54.497z"/>
			<path id="XMLID_250_" style="fill:#0C3854;" d="M480.975-21.024c0.224,0.248,0.465,0.483,0.671,0.746
				c0.776,0.99,1.339,2.089,1.639,3.314c0.053,0.214,0.084,0.437,0.099,0.657c0.033,0.454-0.075,0.861-0.338,1.253
				c-2.729,4.067-5.445,8.143-8.161,12.218c-0.092,0.137-0.195,0.226-0.355,0.266c-0.664,0.166-1.322,0.356-1.99,0.502
				c-0.639,0.14-1.286,0.07-1.927-0.022c-0.525-0.075-1.044-0.184-1.529-0.405c-0.199-0.091-0.39-0.21-0.563-0.345
				c-0.25-0.195-0.295-0.407-0.143-0.689c0.293-0.542,0.584-1.087,0.912-1.608c0.985-1.567,1.97-3.134,2.987-4.681
				c2.538-3.857,5.094-7.704,7.643-11.554c0.037-0.056,0.076-0.111,0.116-0.17c0.079,0.01,0.15,0.018,0.222,0.027
				C480.498-21.352,480.737-21.188,480.975-21.024z"/>
		</g>
	</g>
	<g id="XMLID_543_">
		<g id="XMLID_572_">
			<g id="XMLID_573_">
				<path id="XMLID_577_" style="fill:#C2DFDA;" d="M419.538,16.907V2.148c0-1.554-1.26-2.814-2.813-2.814h-11.228
					c-1.554,0-2.814,1.259-2.814,2.814v14.758h3.832L419.538,16.907z"/>
				<path id="XMLID_574_" style="fill:#99D1D7;" d="M419.538,31.665V16.907h-13.023h-3.832v14.758c0,1.555,1.26,2.814,2.814,2.814
					h11.228C418.279,34.479,419.538,33.219,419.538,31.665z"/>
			</g>
		</g>
		<g id="XMLID_544_">
			<g id="XMLID_545_">
				<g id="XMLID_558_">
					<g id="XMLID_559_">
						<path id="XMLID_571_" style="fill:#FFFFFF;" d="M446.757,0.456c0.015,0.049,0.035,0.097,0.056,0.145V-0.38
							C446.702-0.117,446.675,0.184,446.757,0.456z"/>
						<g id="XMLID_560_">
							<path id="XMLID_570_" style="fill:none;" d="M445.617,0.148c0.054-0.14,0.106-0.28,0.16-0.42
								c0.065-0.166,0.133-0.331,0.199-0.497c-0.111,0.11-0.199,0.242-0.261,0.389C445.645-0.213,445.613-0.032,445.617,0.148z"/>
							<path id="XMLID_567_" style="fill:#FCD4B5;" d="M442.235,14.523c0.058-2.095,0.404-4.158,0.862-6.201
								c0.626-2.791,1.498-5.506,2.52-8.174c-0.004-0.18,0.028-0.362,0.098-0.528c0.061-0.146,0.149-0.279,0.261-0.389
								c0.758-1.912,1.58-3.796,2.495-5.637c0.757-1.523,1.543-3.033,2.352-4.529c-0.379,0.038-0.751,0.151-1.094,0.342
								l-3.649,1.696L421.969,2.304c-0.651,0.363-1.058,1.053-1.058,1.801c0,3.602,0,16.306,0,24.049
								c0,3.41,2.762,6.175,6.175,6.175c5.818,0,11.794,0,16.146,0c-0.451-2.709-0.719-5.442-0.877-8.188
								C442.131,22.271,442.128,18.397,442.235,14.523z"/>
							<path id="XMLID_564_" style="fill:#FCD4B5;" d="M445.975-0.768c0.044-0.043,0.092-0.084,0.144-0.119
								c0.844-0.646,1.684-1.146,2.485-1.575c1.596-0.854,3.032-1.427,4.017-2.314c0.838-0.755,1.352-1.737,1.352-3.316
								c0-1.013-0.535-1.953-1.407-2.468c-0.536-0.31-1.148-0.436-1.744-0.374c-0.809,1.496-1.596,3.005-2.352,4.529
								C447.556-4.564,446.733-2.68,445.975-0.768z"/>
							<path id="XMLID_561_" style="fill:#125079;" d="M478.348-22.748c-0.063-0.044-0.128-0.086-0.194-0.125
								c-1.116-0.651-2.267-1.23-3.471-1.701c-2.214-0.864-4.495-1.416-6.883-1.442c-4.17-0.045-7.595,1.565-10.344,4.671
								c-0.272,0.308-0.555,0.608-0.833,0.912c-0.47,0.683-0.94,1.366-1.41,2.05c-0.05,0.102-0.093,0.208-0.153,0.305
								c-0.6,0.978-1.214,1.947-1.802,2.931c-0.732,1.224-1.474,2.443-2.156,3.695c-0.094,0.172-0.186,0.346-0.279,0.519
								c0.597-0.061,1.209,0.064,1.744,0.374c0.872,0.515,1.407,1.455,1.407,2.468c0,1.579-0.514,2.561-1.352,3.316
								c-0.985,0.887-2.422,1.46-4.017,2.314c-0.801,0.429-1.641,0.929-2.485,1.575c-0.052,0.035-0.1,0.076-0.144,0.119
								c-0.066,0.166-0.134,0.33-0.199,0.497c-0.054,0.14-0.106,0.28-0.16,0.42c-1.021,2.668-1.894,5.383-2.52,8.174
								c-0.458,2.043-0.804,4.106-0.862,6.201c-0.107,3.873-0.103,7.747,0.12,11.618c0.158,2.746,0.427,5.479,0.877,8.188
								c0.157,0.941,0.335,1.88,0.539,2.815c0.576,2.643,1.34,5.228,2.446,7.702c1.028,2.299,2.315,4.433,4.038,6.286
								c0.565,0.607,1.158,1.177,1.862,1.631c0.778,0.501,1.53,1.042,2.29,1.569c0.206,0.143,0.42,0.263,0.658,0.353
								c2.388,0.903,4.827,1.633,7.326,2.159c1.793,0.377,3.601,0.64,5.433,0.718c0.101,0.004,0.201,0.003,0.324,0.005
								c-2.244-7.208-4.476-14.375-6.709-21.546c-0.732-0.057-1.427-0.2-2.109-0.413c-0.911-0.286-1.751-0.712-2.475-1.334
								c-0.997-0.857-1.567-1.958-1.754-3.258c-0.102-0.71-0.087-1.423-0.06-2.136c0.097-2.61,0.346-5.21,0.619-7.806
								c0.666-6.323,1.475-12.627,2.341-18.925c0.027-0.199,0.075-0.397,0.13-0.591c0.268-0.943,0.676-1.825,1.22-2.639
								c0.659-0.985,1.492-1.786,2.567-2.314c1.057-0.519,2.179-0.692,3.344-0.613c0.345,0.024,0.688,0.071,1.043,0.108
								c0.059-0.086,0.121-0.171,0.178-0.26c0.446-0.688,0.891-1.375,1.335-2.064c1.29-2.001,2.579-4.003,3.87-6.004
								c0.836-1.296,1.676-2.59,2.513-3.885c1.355-2.098,2.708-4.195,4.061-6.294c0.056-0.087,0.107-0.176,0.158-0.261
								C478.386-22.707,478.37-22.732,478.348-22.748z"/>
						</g>
					</g>
				</g>
				<path id="XMLID_555_" style="fill:#FCD4B5;" d="M464.854-1.667h-7.843c-2.06,0-3.747,1.748-3.747,3.889
					c0,2.136,1.687,3.89,3.747,3.89h7.843c2.059,0,3.747-1.748,3.747-3.89C468.6,0.088,466.913-1.667,464.854-1.667z"/>
				<path id="XMLID_552_" style="fill:#FCD4B5;" d="M464.854,7.146h-7.843c-2.06,0-3.747,1.747-3.747,3.89
					c0,2.135,1.687,3.889,3.747,3.889h7.843c2.059,0,3.747-1.747,3.747-3.89C468.6,8.901,466.913,7.146,464.854,7.146z"/>
				<path id="XMLID_549_" style="fill:#FCD4B5;" d="M464.854,24.772h-7.843c-2.06,0-3.747,1.747-3.747,3.89
					c0,2.134,1.687,3.89,3.747,3.89h7.843c2.059,0,3.747-1.748,3.747-3.89C468.6,26.527,466.913,24.772,464.854,24.772z"/>
				<path id="XMLID_546_" style="fill:#FCD4B5;" d="M464.854,15.96h-7.843c-2.06,0-3.747,1.746-3.747,3.89
					c0,2.134,1.687,3.889,3.747,3.889h7.843c2.059,0,3.747-1.748,3.747-3.89C468.6,17.714,466.913,15.96,464.854,15.96z"/>
			</g>
		</g>
	</g>
	<g id="XMLID_536_">
		<path id="XMLID_540_" style="fill:#0C3854;" d="M220.703,36.522h190.823c1.042,0,1.885-1.223,1.885-2.732V16.718H220.703V36.522z"
			/>
		<path id="XMLID_537_" style="fill:#125079;" d="M411.526-3.084H220.703v19.802h192.708V-0.353
			C413.411-1.862,412.568-3.084,411.526-3.084z"/>
	</g>
	<circle id="XMLID_533_" style="fill:#C2DFDA;" cx="404.234" cy="31.747" r="2.731"/>
	<circle id="XMLID_530_" style="fill:#C2DFDA;" cx="389.405" cy="31.747" r="2.731"/>
	<circle id="XMLID_527_" style="fill:#C2DFDA;" cx="396.82" cy="31.747" r="2.731"/>
</g>
<g id="XMLID_456_">
	<g id="XMLID_520_">
		<path id="XMLID_523_" style="fill:#FDFEFF;" d="M589.718,301.774c-2.395,2.103-6.04,1.87-8.139-0.521l-42.509-48.398
			c-2.099-2.39-1.861-6.036,0.534-8.139l70.784-62.17c2.394-2.103,6.04-1.868,8.139,0.522l42.509,48.398
			c2.099,2.39,1.861,6.035-0.533,8.137L589.718,301.774z"/>
		
			<rect id="XMLID_522_" x="555.877" y="208.245" transform="matrix(0.7513 -0.6599 0.6599 0.7513 -9.1807 456.9813)" style="fill:#0E3754;" width="91.814" height="64.855"/>
		<path id="XMLID_521_" style="fill:#6E7072;" d="M634.207,205.465c-0.154-0.176-0.14-0.443,0.038-0.599l0,0
			c0.175-0.154,0.445-0.137,0.6,0.039l6.642,7.562c0.154,0.175,0.138,0.448-0.037,0.601l0,0c-0.178,0.156-0.447,0.133-0.6-0.042
			L634.207,205.465z"/>
	</g>
	<g id="XMLID_514_">
		
			<rect id="XMLID_519_" x="566.358" y="246.439" transform="matrix(0.7385 0.6743 -0.6743 0.7385 319.7123 -324.3984)" style="fill:#65C2EE;" width="23.386" height="7.03"/>
		
			<rect id="XMLID_518_" x="557.645" y="255.975" transform="matrix(0.7385 0.6743 -0.6743 0.7385 323.8654 -316.0291)" style="fill:#F0615A;" width="23.386" height="7.035"/>
		
			<rect id="XMLID_517_" x="575.063" y="236.902" transform="matrix(0.7385 0.6743 -0.6743 0.7385 315.5599 -332.7621)" style="fill:#65C2EE;" width="23.386" height="7.035"/>
		<path id="XMLID_516_" style="fill:#65C2EE;" d="M601.957,245.77c-7.458-6.81-7.985-18.377-1.175-25.836l13.505,12.331
			L601.957,245.77z"/>
		<path id="XMLID_515_" style="fill:#F0615A;" d="M609.112,245.551l12.331-13.505l-13.505-12.33
			c6.809-7.457,18.376-7.986,25.836-1.175c7.461,6.812,7.982,18.377,1.173,25.834C628.136,251.834,616.573,252.363,609.112,245.551z
			"/>
	</g>
	<g id="XMLID_506_">
		<g id="XMLID_252_">
			<g id="XMLID_253_">
				<path id="XMLID_254_" style="fill:#FCD4B5;" d="M633.769,238.221c4.816,2.624,1.855,7.94,1.855,7.94l-10.174,19.514
					c0,0-0.49,1.225,1.856,2.306c0.45,0.207,2.099-0.19,2.653-1.548l10.617-9.269c0.76,6.133,1.808,14.817,0.701,17.5
					c-0.888,2.154-3.708,5.666-7.554,10.121c-2.903,3.364-6.391,7.265-10.079,11.526c-1.604,1.853-4.269,9.706-5.183,13.236
					c-4.936,0.059-17.716,1.472-24.1,1.548c-2.276,0.026,0.103-7.448-0.927-9.309c-2.004-9.773,1.174-10.331,2.375-15.112
					c1.255-5,5.802-16.437,13.98-24.101c7.972-7.469,5.431-6.1,12.27-16.299c0.177-0.264,0.355-0.531,0.546-0.811
					C630.134,234.37,633.769,238.221,633.769,238.221z"/>
			</g>
		</g>
	</g>
	<g id="XMLID_477_">
		<path id="XMLID_503_" style="fill:#C3E1DB;" d="M605.632,314.002l-0.194,0.003l-0.128-6.31l15.202-0.307
			c1.601-0.035,2.925,1.238,2.957,2.838l0.07,3.427c-0.106-0.007-0.213-0.01-0.323-0.008L605.632,314.002z"/>
		<path id="XMLID_500_" style="fill:#9AD2D9;" d="M588.046,314.358c-0.245,0.006-0.482,0.033-0.708,0.08l-0.07-3.479
			c-0.031-1.599,1.239-2.924,2.84-2.957l15.203-0.308l0.128,6.31L588.046,314.358z"/>
	</g>
	<g id="XMLID_457_">
		<polygon id="XMLID_474_" style="fill:none;" points="605.855,325.052 605.632,314.002 605.774,321.045 		"/>
		<path id="XMLID_461_" style="fill:#0C3854;" d="M605.855,325.052l-0.081-4.008l-0.142-7.043l-17.586,0.356
			c-0.245,0.006-0.482,0.033-0.708,0.08c-1.204,0.241-2.084,1.015-2.065,1.919l-0.059,6.643h20.539L605.855,325.052z"/>
		<path id="XMLID_458_" style="fill:#125079;" d="M605.753,323h20.221l0.095-7.469c-0.02-0.998-1.126-1.796-2.53-1.878
			c-0.106-0.007-0.213-0.01-0.323-0.008l-17.583,0.357l0.223,11.05L605.753,323z"/>
	</g>
</g>
<path id="XMLID_455_" style="fill:#FDD6B6;" d="M383.858,162.048c0.058-0.64,4.907-2.567,5.433-2.883l0.971-0.488
	c0.089-0.097,1.148-0.816,2.01-1.283c0.468-0.369,0.948-0.722,1.437-1.06c4.79-3.316,10.521-5.142,16.205-5.717
	c1.128-0.114,2.254-0.18,3.37-0.198c1.235-0.019,2.459,0.017,3.66,0.109c3.649,1.34,3.358,7.644-0.292,8.746
	c-0.374,0.135-0.765,0.257-1.163,0.375c-3.679,1.078-8.239,1.59-10.542,4.844c-0.37,0.521-0.682,1.115-0.923,1.794
	c0.657,5.044,6.205,6.698,10.146,7.721c9.251,1.327,14.281-0.06,22.419-4.697c0.503-0.287,1.004-0.579,1.5-0.878
	c3.386-2.044,6.616-4.376,9.644-6.816c0.88-0.514,1.726-0.601,2.49-0.39c3.096,0.857,4.832,6.656,1.962,9.057
	c-3.32,3.277-6.935,6.177-10.764,8.698c-0.681,0.448-1.368,0.884-2.061,1.308c-7.414,4.53-11.6,6.198-19.935,7.9
	c-0.62,0.117-1.247,0.224-1.88,0.32c-0.609,0.171-1.224,0.328-1.847,0.457c-2.866,0.743-5.944,1.367-9.004,1.511
	c-1.625,0.076-3.244,0.017-4.824-0.231c-0.707-0.02-1.414-0.032-2.12-0.032c-1.739-0.107-3.576-0.25-5.379-0.571
	c-1.174-0.21-2.332-0.495-3.438-0.897c-1.55-1.045-10.9-0.684-10.9-2.802c0-1.062,0.531-3.775,0.531-4.992
	c0-1.615,1.806-2.203,1.806-3.93c0-0.067-1.7-1.526-1.7-1.593c0-3.47,0.319-3.421,0.319-6.161c0-1.75,0.744-2.978,0.744-3.93
	c0-0.105-0.85-0.97-0.85-1.062C380.883,164.213,383.852,162.113,383.858,162.048z"/>
<g id="XMLID_434_">
	<g id="XMLID_442_">
		<path id="XMLID_452_" style="fill:#9AD2D9;" d="M385.335,157.001v14.845h-13.099h-3.855v-14.845c0-1.563,1.267-2.83,2.831-2.83
			h11.294C384.068,154.171,385.335,155.438,385.335,157.001z"/>
		<circle id="XMLID_449_" style="fill:#145079;" cx="369.941" cy="156.918" r="2.747"/>
		<path id="XMLID_446_" style="fill:#145079;" d="M223.008,154.171c-1.518,0-2.748,1.23-2.748,2.747s1.23,2.747,2.748,2.747
			c1.517,0,134.764-1.23,134.764-2.747C357.772,155.401,224.525,154.171,223.008,154.171z"/>
		<circle id="XMLID_443_" style="fill:#145079;" cx="362.483" cy="156.918" r="2.747"/>
	</g>
	<g id="XMLID_435_">
		<path id="XMLID_439_" style="fill:#C3E1DB;" d="M368.381,186.692v-14.846h3.855h6.936v0.19v17.172
			c0,0.106-0.005,0.211-0.013,0.314h-7.947"/>
		<path id="XMLID_436_" style="fill:#9AD2D9;" d="M379.172,172.036v-0.19h6.163v14.846c0,1.562-1.267,2.829-2.83,2.829h-3.346
			c0.008-0.103,0.013-0.208,0.013-0.314V172.036z"/>
	</g>
</g>
<g id="XMLID_427_">
	<path id="XMLID_431_" style="fill:#0E3754;" d="M377.276,152.116H220.651v19.919h158.522v-17.172
		C379.172,153.346,378.324,152.116,377.276,152.116z"/>
	<path id="XMLID_428_" style="fill:#145079;" d="M220.651,191.956h156.626c1.047,0,1.896-1.231,1.896-2.748v-17.172H220.651V191.956
		z"/>
</g>
<circle id="XMLID_424_" style="fill:#C3E1DB;" cx="369.941" cy="156.918" r="2.747"/>
<circle id="XMLID_421_" style="fill:#C3E1DB;" cx="362.483" cy="156.918" r="2.747"/>
<g id="XMLID_362_">
	<g id="XMLID_390_">
		<path id="XMLID_418_" style="fill:#F36F5B;" d="M718.426,88.327c0.873-0.525,1.855-0.849,2.909-0.847l69.331,0.161
			c1.399,0.003,2.675,0.549,3.711,1.437l-35.218,26.825l-0.125,0.039l0.125,0.078l-3.086,2.351l-3.122-2.482l0.125-0.079
			l-0.125-0.037L718.426,88.327z"/>
		<path id="XMLID_415_" style="fill:#F36F5B;" d="M794.376,89.194c0,0-33.516-32.585-38.448-32.596
			c-4.933-0.012-37.502,31.846-37.502,31.846L794.376,89.194z"/>
		<g id="XMLID_405_">
			
				<rect id="XMLID_412_" x="731.056" y="79.908" transform="matrix(1 0.0023 -0.0023 1 0.2513 -1.7373)" style="fill:#FFFFFF;" width="48.858" height="57"/>
			
				<rect id="XMLID_411_" x="734.559" y="84.854" transform="matrix(1 0.0023 -0.0023 1 0.2001 -1.7375)" style="fill:#F16429;" width="41.95" height="2.549"/>
			
				<rect id="XMLID_410_" x="734.536" y="96.525" transform="matrix(1 0.0023 -0.0023 1 0.2269 -1.7374)" style="fill:#F16429;" width="41.95" height="2.549"/>
			
				<rect id="XMLID_409_" x="734.547" y="90.689" transform="matrix(1 0.0023 -0.0023 1 0.2135 -1.7375)" style="fill:#F16429;" width="41.95" height="2.55"/>
			
				<rect id="XMLID_408_" x="734.523" y="102.363" transform="matrix(1 0.0023 -0.0023 1 0.2404 -1.7374)" style="fill:#F16429;" width="41.95" height="2.549"/>
			
				<rect id="XMLID_407_" x="734.509" y="107.825" transform="matrix(1 0.0023 -0.0023 1 0.2529 -1.7373)" style="fill:#F16429;" width="41.95" height="2.549"/>
			
				<rect id="XMLID_406_" x="734.493" y="113.671" transform="matrix(1 0.0023 -0.0023 1 0.2664 -1.7373)" style="fill:#F16429;" width="41.95" height="2.55"/>
		</g>
		<g id="XMLID_391_">
			<polygon id="XMLID_402_" style="fill:#67BAC8;" points="761.135,114.513 762.195,113.705 761.139,114.509 			"/>
			<polygon id="XMLID_401_" style="fill:#5B9BB1;" points="772.073,106.181 772.073,106.182 762.195,113.705 			"/>
			<path id="XMLID_398_" style="fill:#E4E4E3;" d="M761.135,114.513l0.004-0.004l1.056-0.805l9.878-7.523l22.303-16.988
				c1.512,1.293,2.502,3.332,2.497,5.648l-0.089,38.497c-0.005,2.016-0.759,3.822-1.953,5.107l-27.629-17.369l-8.043-5.057
				L761.135,114.513z"/>
			<path id="XMLID_395_" style="fill:#E4E4E3;" d="M718.426,88.443l25.823,20.528l0,0l5.459,4.34l2.782,2.212l0.46,0.365
				l-9.815,6.219l-25.916,16.424c-1.347-1.3-2.219-3.216-2.214-5.382l0.089-38.497C715.1,91.947,716.459,89.627,718.426,88.443z"/>
			<path id="XMLID_392_" style="fill:#CAC4C3;" d="M743.135,122.107l9.815-6.219l-0.46-0.365c0.027,0.017,2.581,1.61,3.845,1.613
				c1.266,0.003,4.774-2.605,4.8-2.623l-1.977,1.506l8.043,5.057l27.629,17.369c-1.118,1.205-2.624,1.953-4.287,1.949l-69.331-0.16
				c-1.531-0.004-2.912-0.659-3.993-1.703L743.135,122.107z"/>
		</g>
	</g>
	<g id="XMLID_382_">
		<g id="XMLID_383_">
			<path id="XMLID_387_" style="fill:#C2DFDA;" d="M819.54,117.683v-15.025c0-1.582,1.282-2.864,2.864-2.864h11.43
				c1.582,0,2.865,1.282,2.865,2.864v15.025h-3.901H819.54z"/>
			<path id="XMLID_384_" style="fill:#99D1D7;" d="M819.54,132.707v-15.024h13.258h3.901v15.025c0,1.582-1.283,2.864-2.865,2.864
				h-11.43C820.823,135.572,819.54,134.29,819.54,132.707z"/>
		</g>
	</g>
	<path id="XMLID_379_" style="fill:#FCD4B5;" d="M785.916,89.721c0.545-0.316,1.168-0.443,1.776-0.381
		c0.385,0.039,0.764,0.154,1.113,0.348l3.715,1.726l24.546,11.403c0.663,0.369,1.077,1.072,1.077,1.834c0,3.667,0,16.6,0,24.482
		c0,3.471-2.812,6.287-6.287,6.287c-5.923,0-12.007,0-16.437,0c0.459-2.758,0.732-5.54,0.894-8.336
		c0.227-3.941,0.231-7.885,0.122-11.828c-0.059-2.133-0.412-4.233-0.878-6.313c-0.638-2.842-1.526-5.605-2.565-8.321
		c0.004-0.184-0.029-0.368-0.1-0.537c-0.063-0.149-0.152-0.284-0.266-0.396c-0.045-0.044-0.093-0.086-0.146-0.121
		c-0.859-0.658-1.715-1.167-2.53-1.604c-1.625-0.869-3.087-1.452-4.09-2.355c-0.853-0.769-1.376-1.768-1.376-3.376
		C784.483,91.203,785.029,90.245,785.916,89.721z"/>
	<g id="XMLID_372_">
		<path id="XMLID_376_" style="fill:#0C3854;" d="M982.559,137.652H827.697c-1.06,0-1.919-1.245-1.919-2.781v-17.38h156.781V137.652
			z"/>
		<path id="XMLID_373_" style="fill:#125079;" d="M827.697,97.332H982.56v20.159H825.778v-17.379
			C825.778,98.576,826.636,97.332,827.697,97.332z"/>
	</g>
	<circle id="XMLID_369_" style="fill:#C2DFDA;" cx="835.121" cy="132.791" r="2.78"/>
	<circle id="XMLID_366_" style="fill:#C2DFDA;" cx="850.217" cy="132.791" r="2.78"/>
	<circle id="XMLID_363_" style="fill:#C2DFDA;" cx="842.668" cy="132.791" r="2.78"/>
</g>
<g id="XMLID_2_">
	<rect id="XMLID_361_" x="746.741" y="-25.946" style="fill:#0E3754;" width="28.22" height="44.505"/>
	<g id="XMLID_353_">
		<g id="XMLID_354_">
			<path id="XMLID_358_" style="fill:#C3E1DB;" d="M803.338,1.216v-13.911c0-1.465,1.187-2.652,2.652-2.652h10.583
				c1.465,0,2.653,1.187,2.653,2.652V1.216h-3.613H803.338z"/>
			<path id="XMLID_355_" style="fill:#9AD2D9;" d="M803.338,15.126V1.216h12.275h3.613v13.91c0,1.465-1.188,2.652-2.653,2.652
				H805.99C804.525,17.778,803.338,16.591,803.338,15.126z"/>
		</g>
	</g>
	<rect id="XMLID_352_" x="752.125" y="-30.984" style="fill:#0E3754;" width="17.529" height="3.609"/>
	<rect id="XMLID_351_" x="754.531" y="19.455" style="fill:#0E3754;" width="12.03" height="5.069"/>
	<g id="XMLID_274_">
		<g id="XMLID_275_">
			<g id="XMLID_295_">
				<g id="XMLID_381_">
					<g id="XMLID_385_">
						<g id="XMLID_386_">
							<path id="XMLID_388_" style="fill:#FDFEFF;" d="M744.017-28.239v50.126c0,2.154,1.759,3.915,3.916,3.915h25.837
								c2.153,0.002,3.915-1.758,3.915-3.914v-50.127c0-2.153-1.762-3.915-3.915-3.915h-25.837
								C745.78-32.154,744.017-30.394,744.017-28.239z M768.686-29.051c0,0.509-0.412,0.92-0.919,0.92h-13.83
								c-0.509,0-0.92-0.412-0.92-0.92c0-0.507,0.411-0.919,0.92-0.919h13.83C768.274-29.97,768.686-29.558,768.686-29.051z
								 M763.93,22.137c0-0.505,0.409-0.914,0.914-0.914c0.506,0,0.915,0.409,0.915,0.914s-0.409,0.914-0.915,0.914
								C764.34,23.051,763.93,22.642,763.93,22.137z M758.563,22.137c0-1.264,1.024-2.287,2.288-2.287
								c1.263,0,2.287,1.023,2.287,2.287s-1.024,2.288-2.287,2.288C759.587,24.425,758.563,23.401,758.563,22.137z M755.943,22.137
								c0-0.505,0.41-0.914,0.915-0.914c0.504,0,0.914,0.409,0.914,0.914s-0.41,0.914-0.914,0.914
								C756.353,23.051,755.943,22.642,755.943,22.137z M746.741-25.946h28.22v44.505h-28.22V-25.946z"/>
						</g>
					</g>
				</g>
			</g>
			<path id="XMLID_292_" style="fill:#FDD6B6;" d="M742.863-6.309h7.393c1.941,0,3.531,1.647,3.531,3.667
				c0,2.012-1.59,3.666-3.531,3.666h-7.393c-1.941,0-3.531-1.646-3.531-3.667C739.332-4.655,740.922-6.309,742.863-6.309z"/>
			<g id="XMLID_285_">
				<g id="XMLID_286_">
					<path id="XMLID_290_" style="fill:#FFFFFF;" d="M777.682-14.291c-0.014,0.046-0.032,0.091-0.053,0.137v-0.925
						C777.734-14.831,777.759-14.547,777.682-14.291z"/>
					<path id="XMLID_287_" style="fill:#FDD6B6;" d="M772.206-24.674c0.824-0.477,1.842-0.493,2.675-0.031l3.44,1.598l22.727,10.558
						c0.613,0.342,0.997,0.992,0.997,1.698c0,3.396,0,15.37,0,22.668c0,3.214-2.604,5.821-5.821,5.821c-6.621,0-13.462,0-17.559,0
						v-31.792c0.02-0.046,0.038-0.091,0.052-0.137c0.077-0.256,0.052-0.54-0.052-0.788c-0.081-0.192-0.208-0.363-0.381-0.479
						c-0.796-0.609-1.588-1.081-2.342-1.485c-1.504-0.804-2.858-1.345-3.787-2.18c-0.79-0.712-1.274-1.637-1.274-3.125
						C770.88-23.302,771.385-24.189,772.206-24.674z"/>
				</g>
			</g>
			<path id="XMLID_282_" style="fill:#FDD6B6;" d="M742.863-14.616h7.393c1.941,0,3.531,1.647,3.531,3.666
				c0,2.013-1.59,3.667-3.531,3.667h-7.393c-1.941,0-3.531-1.648-3.531-3.667C739.332-12.961,740.922-14.616,742.863-14.616z"/>
			<path id="XMLID_279_" style="fill:#FDD6B6;" d="M742.863,10.305h7.393c1.941,0,3.531,1.647,3.531,3.666
				c0,2.012-1.59,3.666-3.531,3.666h-7.393c-1.941,0-3.531-1.647-3.531-3.666C739.332,11.959,740.922,10.305,742.863,10.305z"/>
			<path id="XMLID_276_" style="fill:#FDD6B6;" d="M742.863,1.998h7.393c1.941,0,3.531,1.646,3.531,3.667
				c0,2.011-1.59,3.666-3.531,3.666h-7.393c-1.941,0-3.531-1.647-3.531-3.667C739.332,3.652,740.922,1.998,742.863,1.998z"/>
		</g>
	</g>
	<g id="XMLID_267_">
		<path id="XMLID_271_" style="fill:#0E3754;" d="M809.113,1.038V17.13c0,1.422,0.795,2.574,1.777,2.574h171.67V1.038H809.113z"/>
		<path id="XMLID_268_" style="fill:#145079;" d="M982.559-17.627h-171.67c-0.982,0-1.777,1.153-1.777,2.574V1.038h173.446
			L982.559-17.627L982.559-17.627z"/>
	</g>
	<circle id="XMLID_264_" style="fill:#C3E1DB;" cx="817.764" cy="15.204" r="2.574"/>
	<circle id="XMLID_6_" style="fill:#C3E1DB;" cx="831.74" cy="15.204" r="2.574"/>
	<circle id="XMLID_3_" style="fill:#C3E1DB;" cx="824.751" cy="15.204" r="2.574"/>
</g>
<g id="XMLID_728_">
	<g id="XMLID_451_">
		<path id="XMLID_464_" style="fill:#F5F3DB;" d="M534.309-40.653l-1.104-2.427c-2.263-4.72-2.668-10.311-0.496-17.178
			c1.561-4.845,2.785-8.889,1.466-12.114c-1.358-3.319-4.431-4.608-9.251-2.858c-3.13,1.28-6.457,3.97-8.225,6.686l-7.454-9.018
			c2.6-3.388,7.514-7.613,14.248-10.367c12.518-5.121,21.041-0.526,24.261,7.345c2.949,7.208,0.431,13.773-1.543,19.231
			c-1.918,5.324-1.828,9.605,0.013,13.834l0.698,1.707L534.309-40.653z M537.197-26.557c-2.056-5.026-0.021-10.066,4.91-12.083
			c5.121-2.095,9.915,0.151,12.066,5.139c2.018,4.932,0.116,10.027-5.004,12.122C544.142-19.323,539.215-21.625,537.197-26.557z"/>
		<path id="XMLID_460_" style="fill:#F5F3DB;" d="M600.551-39.957c0-5.431,3.791-9.325,9.222-9.325s9.017,3.894,9.119,9.325
			c0,5.328-3.586,9.325-9.119,9.325C604.241-30.632,600.551-34.628,600.551-39.957z M603.933-54.404l-2.357-46.418h16.292
			l-2.254,46.418H603.933z"/>
		<path id="XMLID_453_" style="fill:#F5F3DB;" d="M671.865-45.572l1.152-2.405c2.166-4.766,6.192-8.666,12.852-11.409
			c4.716-1.915,8.603-3.573,10.228-6.654c1.673-3.172,0.687-6.357-3.749-8.928c-2.991-1.577-7.19-2.402-10.407-2.013l2.129-11.504
			c4.267-0.182,10.66,0.873,17.096,4.267c11.964,6.309,13.914,15.794,9.946,23.316c-3.633,6.889-10.283,9.174-15.735,11.164
			c-5.313,1.948-8.537,4.765-10.597,8.892l-0.86,1.631L671.865-45.572z M662.913-34.307c2.533-4.803,7.703-6.479,12.416-3.994
			c4.894,2.581,6.25,7.698,3.807,12.55c-2.485,4.713-7.613,6.527-12.507,3.946C661.827-24.339,660.428-29.594,662.913-34.307z"/>
	</g>
</g>
</svg>
